:SAMPLES-PER-SECOND 30
:FULLY-SPECIFIED
:DEGREES
445
root  -55.8316 37.5603 -14.3517 35.7401 -10.3436 0.697449
RightUpLeg  -71.1942 -22.9364 26.6609
RightLeg  38.3513 -7.07632 -6.24446
RightFoot  -10.0967 0.0451623 -10.3691
RightToes  0.00048216 0.542163 -0.142577
Spine  65.7441 -4.23212 3.24992
Spine1  11.2559 -0.335571 -7.49986
HEad  -31.1684 4.82428 -17.5485
LeftShoulder1  5.42937 -22.7318 -13.6409
LeftArm  -78.8106 -80.9106 24.4248
LeftForeArm  15.7618 -1.69568 -2.05448
LeftHand  -0.25398 0.0180481 5.50724
RightShoulder  1.74244 7.82953 7.8885
RightArm  -71.9428 74.2543 -19.7146
RightForeArm  -15.0433 -0.0626357 3.67142
RightHand  -4.62623 12.2753 -30.1863
LeftUpLeg  -72.2221 22.3716 -27.7388
LeftLeg  35.5302 -3.2184 -2.0997
LeftFoot  -3.78364 -0.550421 8.6581
LeftToes  1.06248e-005 4.65856e-005 -8.18499e-006
446
root  -55.6536 37.8387 -14.4633 34.1277 -10.541 0.572083
RightUpLeg  -68.7591 -24.0279 26.2664
RightLeg  36.1912 -6.60278 -5.42873
RightFoot  -9.06202 0.148268 -10.4827
RightToes  0.00048216 0.542163 -0.142577
Spine  65.2684 -4.07354 3.29091
Spine1  10.8562 -0.328952 -6.87709
HEad  -30.8922 6.4756 -19.7858
LeftShoulder1  5.58681 -22.9521 -14.0967
LeftArm  -67.8999 -79.9214 15.2885
LeftForeArm  17.6392 0.692675 -2.43795
LeftHand  -0.25398 0.0180481 5.50724
RightShoulder  1.82145 8.07388 8.29015
RightArm  -62.4033 75.8757 -8.51956
RightForeArm  -9.49226 0.834157 3.84118
RightHand  -5.03002 13.1824 -31.1448
LeftUpLeg  -69.5595 23.0738 -27.1535
LeftLeg  33.441 -3.33378 -2.00892
LeftFoot  -3.07399 -0.645081 9.16091
LeftToes  1.06248e-005 4.65856e-005 -8.18499e-006
447
root  -55.4774 38.1507 -14.5547 32.3286 -10.8358 0.439316
RightUpLeg  -65.984 -25.243 25.7686
RightLeg  33.83 -5.98323 -4.55488
RightFoot  -7.84983 0.265051 -10.3997
RightToes  0.00048216 0.542163 -0.142577
Spine  64.7083 -3.85332 3.39965
Spine1  10.4912 -0.215923 -6.29505
HEad  -30.6379 8.37315 -22.0216
LeftShoulder1  5.95426 -23.0701 -15.5047
LeftArm  -53.5514 -77.9404 2.0442
LeftForeArm  19.334 1.31521 -2.93941
LeftHand  -0.25398 0.0180481 5.50724
RightShoulder  1.98661 8.49965 9.19767
RightArm  -47.3772 75.7644 6.4304
RightForeArm  -5.74813 3.01608 4.77389
RightHand  -4.97707 13.2441 -30.73
LeftUpLeg  -66.3831 23.6566 -26.1743
LeftLeg  31.0333 -3.04029 -1.62317
LeftFoot  -2.28322 -0.722907 9.28431
LeftToes  1.06248e-005 4.65856e-005 -8.18499e-006
448
root  -55.2942 38.4825 -14.6206 30.3782 -11.1299 0.374268
RightUpLeg  -62.9731 -26.6351 25.126
RightLeg  31.3273 -5.26864 -3.69836
RightFoot  -6.52729 0.384168 -10.1498
RightToes  0.00048216 0.542163 -0.142577
Spine  63.9486 -4.01429 3.87791
Spine1  10.2925 0.101189 -6.82459
HEad  -30.3773 10.5095 -23.5397
LeftShoulder1  6.25872 -23.2486 -16.5729
LeftArm  -40.6826 -74.4799 -10.9844
LeftForeArm  20.6309 0.785948 -3.17258
LeftHand  -0.25398 0.0180481 5.50724
RightShoulder  2.34534 9.02653 11.6274
RightArm  -33.0863 73.8551 18.6453
RightForeArm  -2.32649 5.61463 6.06069
RightHand  -4.67567 12.816 -29.6198
LeftUpLeg  -62.6454 23.7291 -24.6009
LeftLeg  28.4054 -2.16942 -0.927665
LeftFoot  -1.32808 -0.77167 8.88243
LeftToes  1.06248e-005 4.65856e-005 -8.18499e-006
449
root  -55.0955 38.8119 -14.655 28.3175 -11.3702 0.324432
RightUpLeg  -59.738 -28.1773 24.357
RightLeg  28.7108 -4.40155 -2.84623
RightFoot  -5.20058 0.501904 -9.9717
RightToes  0.00048216 0.542163 -0.142577
Spine  62.8818 -4.46817 4.79043
Spine1  10.2221 0.666039 -8.23593
HEad  -30.007 12.6436 -24.4754
LeftShoulder1  6.55361 -24.004 -17.0717
LeftArm  -31.9939 -69.4119 -20.4957
LeftForeArm  21.1158 0.445767 -3.08816
LeftHand  -0.25398 0.0180481 5.50724
RightShoulder  2.87572 9.42421 15.5282
RightArm  -21.8519 70.6482 26.3767
RightForeArm  1.30711 7.84154 7.2989
RightHand  -4.46353 12.4262 -28.9384
LeftUpLeg  -58.5973 23.4309 -22.7457
LeftLeg  25.7596 -0.887791 -0.126896
LeftFoot  -0.342942 -0.843815 8.76221
LeftToes  1.06248e-005 4.65856e-005 -8.18499e-006
450
root  -54.881 39.1199 -14.6559 26.238 -11.625 0.166626
RightUpLeg  -56.3567 -29.7478 23.549
RightLeg  26.0956 -3.36337 -2.02332
RightFoot  -3.89267 0.618041 -9.86388
RightToes  0.00048216 0.542163 -0.142577
Spine  61.6894 -4.50331 4.37088
Spine1  10.2978 -0.140651 -7.07737
HEad  -30.8755 16.4577 -27.4953
LeftShoulder1  7.31072 -22.0796 -22.1101
LeftArm  -27.5447 -64.1121 -22.3576
LeftForeArm  19.5755 0.566789 -3.91841
LeftHand  -0.25398 0.0180481 5.50724
RightShoulder  3.19603 11.1416 15.0204
RightArm  -12.7084 66.9166 35.2002
RightForeArm  4.30455 9.06396 7.59378
RightHand  -4.43158 12.2748 -28.9734
LeftUpLeg  -54.6126 23.3096 -21.0901
LeftLeg  23.2223 0.360321 0.506441
LeftFoot  0.457901 -0.94153 9.06398
LeftToes  1.06248e-005 4.65856e-005 -8.18499e-006
451
root  -54.6522 39.3998 -14.624 24.1782 -11.9091 -0.0764313
RightUpLeg  -53.0238 -31.4192 22.7967
RightLeg  23.6515 -2.16846 -1.30922
RightFoot  -2.6009 0.711119 -9.5075
RightToes  0.00048216 0.542163 -0.142577
Spine  60.1285 -4.3081 4.82904
Spine1  10.2722 0.0493979 -6.64077
HEad  -30.6977 18.5418 -29.0868
LeftShoulder1  8.04963 -21.9337 -25.3654
LeftArm  -24.2638 -57.4455 -24.7815
LeftForeArm  17.9817 1.10625 -4.04257
LeftHand  -0.25398 0.0180481 5.50724
RightShoulder  3.54747 11.5439 16.9389
RightArm  -5.78164 62.1926 38.8185
RightForeArm  4.04592 10.6139 8.10751
RightHand  -4.32771 11.969 -28.799
LeftUpLeg  -50.8761 23.5384 -19.6908
LeftLeg  20.9865 1.13051 0.813015
LeftFoot  1.1828 -0.978636 8.83876
LeftToes  1.06248e-005 4.65856e-005 -8.18499e-006
452
root  -54.4133 39.6646 -14.5653 22.0586 -12.0502 -0.223663
RightUpLeg  -49.3454 -32.824 21.2631
RightLeg  21.3535 -1.66639 -0.684295
RightFoot  -1.34006 0.761806 -8.78666
RightToes  0.00048216 0.542163 -0.142577
Spine  58.6864 -4.08683 5.24758
Spine1  10.056 0.221736 -6.11209
HEad  -30.0224 20.4169 -30.2037
LeftShoulder1  8.86429 -21.524 -29.2572
LeftArm  -21.9982 -50.1661 -25.6967
LeftForeArm  17.0567 1.41371 -4.18767
LeftHand  -0.25398 0.0180481 5.50724
RightShoulder  3.93539 11.9369 19.0076
RightArm  -0.338224 56.7567 40.024
RightForeArm  1.48863 12.2794 8.37162
RightHand  -4.05954 11.3785 -28.0093
LeftUpLeg  -47.5063 23.8576 -18.4199
LeftLeg  19.4926 1.16958 0.791581
LeftFoot  2.31212 -0.982318 8.07059
LeftToes  1.06248e-005 4.65856e-005 -8.18499e-006
453
root  -54.1771 39.9283 -14.4927 19.8243 -11.8191 -0.122406
RightUpLeg  -43.8129 -31.6136 16.1564
RightLeg  19.0833 -5.11316 0.160077
RightFoot  -0.14132 0.782541 -7.96935
RightToes  0.00048216 0.542163 -0.142577
Spine  57.4522 -3.93679 5.71706
Spine1  9.68543 0.417939 -5.62794
HEad  -28.5176 21.9711 -30.6748
LeftShoulder1  9.73079 -21.2356 -33.2025
LeftArm  -20.1323 -42.4077 -25.4653
LeftForeArm  16.9516 1.45501 -4.40547
LeftHand  -0.25398 0.0180481 5.50724
RightShoulder  4.33397 12.1088 21.4447
RightArm  3.99593 50.8554 39.4151
RightForeArm  -2.40986 13.9297 8.37447
RightHand  -3.79177 10.7104 -27.288
LeftUpLeg  -44.741 24.1879 -17.3649
LeftLeg  19.2138 0.306198 0.447564
LeftFoot  4.18942 -1.06846 7.62119
LeftToes  1.06248e-005 4.65856e-005 -8.18499e-006
454
root  -53.9429 40.1727 -14.4155 17.5251 -11.1255 0.193893
RightUpLeg  -37.1999 -27.1863 8.50297
RightLeg  16.8858 -12.4634 1.27885
RightFoot  0.89353 0.788255 -7.28049
RightToes  0.00048216 0.542163 -0.142577
Spine  56.2267 -3.99381 6.2453
Spine1  9.13006 0.34536 -5.19658
HEad  -26.5682 23.3618 -30.603
LeftShoulder1  10.3581 -20.8601 -36.3511
LeftArm  -18.223 -34.3732 -24.476
LeftForeArm  16.5782 1.07412 -4.79081
LeftHand  -0.25398 0.0180481 5.50724
RightShoulder  4.70559 12.2 23.774
RightArm  7.29265 44.8501 38.2188
RightForeArm  -6.47958 15.3273 8.20596
RightHand  -3.60668 10.0469 -27.0774
LeftUpLeg  -42.6069 24.4176 -16.292
LeftLeg  20.3418 -1.60313 -0.332815
LeftFoot  6.51098 -0.992734 6.09846
LeftToes  1.06248e-005 4.65856e-005 -8.18499e-006
455
root  -53.6759 40.3519 -14.3244 15.2052 -10.0545 0.549561
RightUpLeg  -31.6464 -22.5559 2.10028
RightLeg  15.0734 -19.5152 2.45586
RightFoot  1.58767 0.753177 -6.53824
RightToes  0.00048216 0.542163 -0.142577
Spine  54.839 -4.41268 6.88472
Spine1  8.50121 -0.204433 -4.89294
HEad  -24.9122 24.8524 -30.4046
LeftShoulder1  10.4058 -20.0272 -38.0094
LeftArm  -16.2448 -26.4738 -23.4944
LeftForeArm  15.5014 0.113368 -5.25009
LeftHand  -0.25398 0.0180481 5.50724
RightShoulder  5.01232 12.4309 25.3426
RightArm  9.57976 39.0361 37.5011
RightForeArm  -9.79724 16.3074 8.01507
RightHand  -3.44298 9.33592 -27.0883
LeftUpLeg  -40.6716 23.9774 -14.4526
LeftLeg  22.6821 -4.55665 -1.76897
LeftFoot  8.37537 -0.101176 0.312111
LeftToes  1.06248e-005 4.65856e-005 -8.18499e-006
456
root  -53.3343 40.432 -14.195 12.9039 -8.93948 0.689926
RightUpLeg  -27.3411 -19.5986 -2.15896
RightLeg  14.0166 -24.1033 3.48676
RightFoot  1.8758 0.647119 -5.46427
RightToes  0.00048216 0.542163 -0.142577
Spine  52.8331 -4.5448 8.00218
Spine1  8.74368 -0.373051 -4.17065
HEad  -23.1298 25.5526 -30.5245
LeftShoulder1  10.6265 -19.7357 -39.4546
LeftArm  -14.7972 -19.6172 -22.4591
LeftForeArm  14.9418 -0.672533 -5.55452
LeftHand  -0.25398 0.0180481 5.50724
RightShoulder  5.14269 12.3177 26.436
RightArm  11.2107 33.2852 36.1022
RightForeArm  -12.9401 17.1463 7.82242
RightHand  -3.34355 8.79973 -27.283
LeftUpLeg  -38.6769 22.7052 -11.5429
LeftLeg  25.9524 -8.12076 -3.96791
LeftFoot  8.68705 1.54764 -9.12534
LeftToes  1.06248e-005 4.65856e-005 -8.18499e-006
